<mxfile host="app.diagrams.net" agent="Mozilla/5.0 (Windows NT 10.0; Win64; x64; rv:138.0) Gecko/20100101 Firefox/138.0" version="26.3.0">
  <diagram name="Page-1" id="Y_vLkDw0tZGfkMZAfWmf">
    <mxGraphModel dx="1209" dy="725" grid="1" gridSize="10" guides="1" tooltips="1" connect="1" arrows="1" fold="1" page="1" pageScale="1" pageWidth="3300" pageHeight="4681" math="0" shadow="0">
      <root>
        <mxCell id="0" />
        <mxCell id="1" parent="0" />
        <mxCell id="TTWcf-BgUhaSdbW0b4H3-34" value="1c Designing the Fuzzy Logic System" style="text;html=1;align=left;verticalAlign=top;whiteSpace=wrap;rounded=0;dashed=1;fillColor=#f5f5f5;fontColor=#333333;strokeColor=#666666;strokeWidth=2;" name="text" vertex="1" parent="1">
          <mxGeometry x="210" y="640" width="330" height="200" as="geometry" />
        </mxCell>
        <mxCell id="TTWcf-BgUhaSdbW0b4H3-33" value="&lt;div&gt;2a Initial Assessment&amp;nbsp;&lt;/div&gt;&lt;div&gt;(RBR Module)&lt;/div&gt;" style="text;html=1;align=left;verticalAlign=top;whiteSpace=wrap;rounded=0;dashed=1;fillColor=#f5f5f5;fontColor=#333333;strokeColor=#666666;strokeWidth=2;" name="text" vertex="1" parent="1">
          <mxGeometry x="550" y="580" width="280" height="260" as="geometry" />
        </mxCell>
        <mxCell id="TTWcf-BgUhaSdbW0b4H3-29" value="2a Initial Assessment (RBR Module)" style="text;html=1;align=left;verticalAlign=top;whiteSpace=wrap;rounded=0;dashed=1;fillColor=#f5f5f5;fontColor=#333333;strokeColor=#666666;strokeWidth=2;" name="text" vertex="1" parent="1">
          <mxGeometry x="390" y="360" width="450" height="210" as="geometry" />
        </mxCell>
        <mxCell id="TTWcf-BgUhaSdbW0b4H3-30" value="2a Knowledge Representation" style="text;html=1;align=right;verticalAlign=top;whiteSpace=wrap;rounded=0;dashed=1;fillColor=#f5f5f5;fontColor=#333333;strokeColor=#666666;strokeWidth=2;" name="text" vertex="1" parent="1">
          <mxGeometry x="840" y="580" width="280" height="260" as="geometry" />
        </mxCell>
        <mxCell id="TTWcf-BgUhaSdbW0b4H3-28" value="1c Rule Formation" style="text;html=1;align=left;verticalAlign=top;whiteSpace=wrap;rounded=0;dashed=1;fillColor=#f5f5f5;fontColor=#333333;strokeColor=#666666;strokeWidth=2;" name="text" vertex="1" parent="1">
          <mxGeometry x="390" y="210" width="450" height="140" as="geometry" />
        </mxCell>
        <mxCell id="TTWcf-BgUhaSdbW0b4H3-3" style="edgeStyle=orthogonalEdgeStyle;rounded=0;orthogonalLoop=1;jettySize=auto;html=1;exitX=1;exitY=0.5;exitDx=0;exitDy=0;entryX=0;entryY=0.5;entryDx=0;entryDy=0;" edge="1" parent="1" source="TTWcf-BgUhaSdbW0b4H3-1" target="TTWcf-BgUhaSdbW0b4H3-2">
          <mxGeometry relative="1" as="geometry" />
        </mxCell>
        <mxCell id="TTWcf-BgUhaSdbW0b4H3-1" value="actor&#xa;Clinicians" style="triangle;fillColor=#ffe6cc;strokeColor=#d79b00;" name="actor" vertex="1" parent="1">
          <mxGeometry x="340" y="230" width="100" height="50" as="geometry" />
        </mxCell>
        <mxCell id="TTWcf-BgUhaSdbW0b4H3-5" style="edgeStyle=orthogonalEdgeStyle;rounded=0;orthogonalLoop=1;jettySize=auto;html=1;exitX=1;exitY=0.5;exitDx=0;exitDy=0;entryX=0.5;entryY=0;entryDx=0;entryDy=0;" edge="1" parent="1" source="TTWcf-BgUhaSdbW0b4H3-2" target="TTWcf-BgUhaSdbW0b4H3-4">
          <mxGeometry relative="1" as="geometry" />
        </mxCell>
        <mxCell id="TTWcf-BgUhaSdbW0b4H3-2" value="generate:engineer" style="rounded=1;whiteSpace=wrap;html=1;arcSize=50;fillColor=#e1d5e7;strokeColor=#9673a6;" name="generate:engineer" vertex="1" parent="1">
          <mxGeometry x="520" y="230" width="100" height="50" as="geometry" />
        </mxCell>
        <mxCell id="TTWcf-BgUhaSdbW0b4H3-8" style="edgeStyle=orthogonalEdgeStyle;rounded=0;orthogonalLoop=1;jettySize=auto;html=1;exitX=0.5;exitY=1;exitDx=0;exitDy=0;entryX=0.5;entryY=0;entryDx=0;entryDy=0;" edge="1" parent="1" source="TTWcf-BgUhaSdbW0b4H3-4" target="TTWcf-BgUhaSdbW0b4H3-7">
          <mxGeometry relative="1" as="geometry" />
        </mxCell>
        <mxCell id="TTWcf-BgUhaSdbW0b4H3-4" value="model:semantic&#xa;RBR Module" style="shape=hexagon;perimeter=hexagonPerimeter2;fillColor=#b0e3e6;strokeColor=#0e8088;" name="model" vertex="1" parent="1">
          <mxGeometry x="640" y="330" width="120" height="50" as="geometry" />
        </mxCell>
        <mxCell id="TTWcf-BgUhaSdbW0b4H3-9" style="edgeStyle=orthogonalEdgeStyle;rounded=0;orthogonalLoop=1;jettySize=auto;html=1;entryX=0;entryY=0.5;entryDx=0;entryDy=0;" edge="1" parent="1" source="TTWcf-BgUhaSdbW0b4H3-6" target="TTWcf-BgUhaSdbW0b4H3-7">
          <mxGeometry relative="1" as="geometry" />
        </mxCell>
        <mxCell id="TTWcf-BgUhaSdbW0b4H3-6" value="data&#xa;Patient&#xa;Measurements" style="rectangle;fillColor=#fff2cc;strokeColor=#d6b656;" name="data" vertex="1" parent="1">
          <mxGeometry x="470" y="460" width="100" height="50" as="geometry" />
        </mxCell>
        <mxCell id="TTWcf-BgUhaSdbW0b4H3-32" style="edgeStyle=orthogonalEdgeStyle;rounded=0;orthogonalLoop=1;jettySize=auto;html=1;exitX=1;exitY=0.5;exitDx=0;exitDy=0;entryX=0.5;entryY=0;entryDx=0;entryDy=0;" edge="1" parent="1" source="TTWcf-BgUhaSdbW0b4H3-7" target="TTWcf-BgUhaSdbW0b4H3-10">
          <mxGeometry relative="1" as="geometry" />
        </mxCell>
        <mxCell id="TTWcf-BgUhaSdbW0b4H3-7" value="infer:deduce" style="rounded=1;whiteSpace=wrap;html=1;arcSize=50;fillColor=#bac8d3;strokeColor=#23445d;" name="infer:deduce" vertex="1" parent="1">
          <mxGeometry x="650" y="460" width="100" height="50" as="geometry" />
        </mxCell>
        <mxCell id="TTWcf-BgUhaSdbW0b4H3-22" style="edgeStyle=orthogonalEdgeStyle;rounded=0;orthogonalLoop=1;jettySize=auto;html=1;exitX=0;exitY=0.5;exitDx=0;exitDy=0;entryX=0.5;entryY=0;entryDx=0;entryDy=0;" edge="1" parent="1" source="TTWcf-BgUhaSdbW0b4H3-10" target="TTWcf-BgUhaSdbW0b4H3-12">
          <mxGeometry relative="1" as="geometry" />
        </mxCell>
        <mxCell id="TTWcf-BgUhaSdbW0b4H3-10" value="symbol&#xa;Triage Level&#xa;Recommendations" style="rectangle;fillColor=#dae8fc;strokeColor=#6c8ebf;" name="symbol" vertex="1" parent="1">
          <mxGeometry x="780" y="560" width="100" height="50" as="geometry" />
        </mxCell>
        <mxCell id="TTWcf-BgUhaSdbW0b4H3-23" style="edgeStyle=orthogonalEdgeStyle;rounded=0;orthogonalLoop=1;jettySize=auto;html=1;exitX=0.5;exitY=1;exitDx=0;exitDy=0;entryX=0;entryY=0.5;entryDx=0;entryDy=0;" edge="1" parent="1" source="TTWcf-BgUhaSdbW0b4H3-12" target="TTWcf-BgUhaSdbW0b4H3-20">
          <mxGeometry relative="1" as="geometry" />
        </mxCell>
        <mxCell id="TTWcf-BgUhaSdbW0b4H3-12" value="infer:deduce" style="rounded=1;whiteSpace=wrap;html=1;arcSize=50;fillColor=#bac8d3;strokeColor=#23445d;" name="infer:deduce" vertex="1" parent="1">
          <mxGeometry x="650" y="660" width="100" height="50" as="geometry" />
        </mxCell>
        <mxCell id="TTWcf-BgUhaSdbW0b4H3-19" style="edgeStyle=orthogonalEdgeStyle;rounded=0;orthogonalLoop=1;jettySize=auto;html=1;entryX=0;entryY=0.5;entryDx=0;entryDy=0;" edge="1" parent="1" source="TTWcf-BgUhaSdbW0b4H3-14" target="TTWcf-BgUhaSdbW0b4H3-12">
          <mxGeometry relative="1" as="geometry" />
        </mxCell>
        <mxCell id="TTWcf-BgUhaSdbW0b4H3-14" value="model:semantic&#xa;FLC" style="shape=hexagon;perimeter=hexagonPerimeter2;fillColor=#b0e3e6;strokeColor=#0e8088;" name="model" vertex="1" parent="1">
          <mxGeometry x="460" y="660" width="120" height="50" as="geometry" />
        </mxCell>
        <mxCell id="TTWcf-BgUhaSdbW0b4H3-16" style="edgeStyle=orthogonalEdgeStyle;rounded=0;orthogonalLoop=1;jettySize=auto;html=1;entryX=0.5;entryY=1;entryDx=0;entryDy=0;" edge="1" parent="1" source="TTWcf-BgUhaSdbW0b4H3-15" target="TTWcf-BgUhaSdbW0b4H3-14">
          <mxGeometry relative="1" as="geometry" />
        </mxCell>
        <mxCell id="TTWcf-BgUhaSdbW0b4H3-15" value="generate:engineer" style="rounded=1;whiteSpace=wrap;html=1;arcSize=50;fillColor=#e1d5e7;strokeColor=#9673a6;" name="generate:engineer" vertex="1" parent="1">
          <mxGeometry x="340" y="760" width="100" height="50" as="geometry" />
        </mxCell>
        <mxCell id="TTWcf-BgUhaSdbW0b4H3-18" style="edgeStyle=orthogonalEdgeStyle;rounded=0;orthogonalLoop=1;jettySize=auto;html=1;exitX=1;exitY=0.5;exitDx=0;exitDy=0;entryX=0;entryY=0.5;entryDx=0;entryDy=0;" edge="1" parent="1" source="TTWcf-BgUhaSdbW0b4H3-17" target="TTWcf-BgUhaSdbW0b4H3-15">
          <mxGeometry relative="1" as="geometry" />
        </mxCell>
        <mxCell id="TTWcf-BgUhaSdbW0b4H3-17" value="actor&#xa;Experts" style="triangle;fillColor=#ffe6cc;strokeColor=#d79b00;" name="actor" vertex="1" parent="1">
          <mxGeometry x="160" y="760" width="100" height="50" as="geometry" />
        </mxCell>
        <mxCell id="TTWcf-BgUhaSdbW0b4H3-25" style="edgeStyle=orthogonalEdgeStyle;rounded=0;orthogonalLoop=1;jettySize=auto;html=1;entryX=0.5;entryY=1;entryDx=0;entryDy=0;" edge="1" parent="1" source="TTWcf-BgUhaSdbW0b4H3-20" target="TTWcf-BgUhaSdbW0b4H3-24">
          <mxGeometry relative="1" as="geometry" />
        </mxCell>
        <mxCell id="TTWcf-BgUhaSdbW0b4H3-20" value="symbol&#xa;Refined Triage&#xa;Level" style="rectangle;fillColor=#dae8fc;strokeColor=#6c8ebf;" name="symbol" vertex="1" parent="1">
          <mxGeometry x="780" y="760" width="100" height="50" as="geometry" />
        </mxCell>
        <mxCell id="TTWcf-BgUhaSdbW0b4H3-24" value="infer:deduce" style="rounded=1;whiteSpace=wrap;html=1;arcSize=50;fillColor=#bac8d3;strokeColor=#23445d;" name="infer:deduce" vertex="1" parent="1">
          <mxGeometry x="910" y="660" width="100" height="50" as="geometry" />
        </mxCell>
        <mxCell id="TTWcf-BgUhaSdbW0b4H3-27" value="&lt;div&gt;error&lt;/div&gt;&lt;div&gt;&amp;lt;-&lt;/div&gt;&lt;div&gt;&amp;nbsp;&amp;nbsp; |&lt;/div&gt;" style="text;html=1;align=center;verticalAlign=middle;whiteSpace=wrap;rounded=0;dashed=1;fillColor=#f5f5f5;fontColor=#333333;strokeColor=#666666;strokeWidth=2;" name="text" vertex="1" parent="1">
          <mxGeometry x="880" y="560" width="70" height="100" as="geometry" />
        </mxCell>
      </root>
    </mxGraphModel>
  </diagram>
</mxfile>
